<svg width="501" height="91" viewBox="0 0 501 91" fill="none" xmlns="http://www.w3.org/2000/svg">
<path d="M50.929 26.8267C50.5881 23.3892 49.125 20.7187 46.5398 18.8153C43.9545 16.9119 40.446 15.9602 36.0142 15.9602C33.0028 15.9602 30.4602 16.3864 28.3864 17.2386C26.3125 18.0625 24.7216 19.2131 23.6136 20.6903C22.5341 22.1676 21.9943 23.8438 21.9943 25.7188C21.9375 27.2813 22.2642 28.6449 22.9744 29.8097C23.7131 30.9744 24.7216 31.983 26 32.8352C27.2784 33.6591 28.7557 34.3835 30.4318 35.0085C32.108 35.6051 33.8977 36.1165 35.8011 36.5426L43.642 38.4176C47.4489 39.2699 50.9432 40.4062 54.125 41.8267C57.3068 43.2472 60.0625 44.9943 62.392 47.0682C64.7216 49.142 66.5256 51.5852 67.804 54.3977C69.1108 57.2102 69.7784 60.4347 69.8068 64.071C69.7784 69.4119 68.4148 74.0426 65.7159 77.9631C63.0455 81.8551 59.1818 84.8807 54.125 87.0398C49.0966 89.1705 43.0313 90.2358 35.929 90.2358C28.8835 90.2358 22.7472 89.1562 17.5199 86.9972C12.321 84.8381 8.25852 81.642 5.33239 77.4091C2.43466 73.1477 0.914773 67.8778 0.772727 61.5994H18.6278C18.8267 64.5256 19.6648 66.9687 21.142 68.929C22.6477 70.8608 24.6506 72.3239 27.1506 73.3182C29.679 74.2841 32.5341 74.767 35.7159 74.767C38.8409 74.767 41.554 74.3125 43.8551 73.4034C46.1847 72.4943 47.9886 71.2301 49.267 69.6108C50.5455 67.9915 51.1847 66.1307 51.1847 64.0284C51.1847 62.0682 50.6023 60.4205 49.4375 59.0852C48.3011 57.75 46.625 56.6136 44.4091 55.6761C42.2216 54.7386 39.5369 53.8864 36.3551 53.1193L26.8523 50.733C19.4943 48.9432 13.6847 46.1449 9.4233 42.3381C5.16193 38.5312 3.04545 33.4034 3.07386 26.9545C3.04545 21.6705 4.4517 17.054 7.29261 13.1051C10.1619 9.15625 14.0966 6.07386 19.0966 3.85795C24.0966 1.64204 29.7784 0.534088 36.142 0.534088C42.6193 0.534088 48.2727 1.64204 53.1023 3.85795C57.9602 6.07386 61.7386 9.15625 64.4375 13.1051C67.1364 17.054 68.5284 21.6278 68.6136 26.8267H50.929ZM97.9851 1.72727L119.079 68.0341H119.888L141.025 1.72727H161.479L131.394 89H107.616L77.4879 1.72727H97.9851ZM244.981 1.72727V89H229.043L191.075 34.071H190.435V89H171.984V1.72727H188.177L225.847 56.6136H226.614V1.72727H244.981Z" fill="#4F56E0"/>
<path d="M260.226 89V1.72727H294.658C301.277 1.72727 306.916 2.99148 311.575 5.51989C316.234 8.01989 319.786 11.5 322.229 15.9602C324.7 20.392 325.936 25.5057 325.936 31.3011C325.936 37.0966 324.686 42.2102 322.186 46.642C319.686 51.0739 316.064 54.5256 311.32 56.9972C306.604 59.4687 300.893 60.7045 294.189 60.7045H272.243V45.9176H291.206C294.757 45.9176 297.683 45.3068 299.984 44.0852C302.314 42.8352 304.047 41.1165 305.183 38.929C306.348 36.7131 306.93 34.1705 306.93 31.3011C306.93 28.4034 306.348 25.875 305.183 23.7159C304.047 21.5284 302.314 19.8381 299.984 18.6449C297.655 17.4233 294.7 16.8125 291.121 16.8125H278.678V89H260.226ZM355.734 1.72727V89H337.58V1.72727H355.734ZM412.25 61.1307V23.5455H430.403V89H412.974V77.1108H412.293C410.815 80.946 408.358 84.0284 404.92 86.358C401.511 88.6875 397.349 89.8523 392.435 89.8523C388.06 89.8523 384.21 88.858 380.886 86.8693C377.563 84.8807 374.963 82.054 373.088 78.3892C371.241 74.7244 370.304 70.3352 370.276 65.2216V23.5455H388.429V61.983C388.457 65.8466 389.494 68.9006 391.54 71.1449C393.585 73.3892 396.327 74.5114 399.764 74.5114C401.952 74.5114 403.997 74.0142 405.901 73.0199C407.804 71.9972 409.338 70.4915 410.503 68.5028C411.696 66.5142 412.278 64.0568 412.25 61.1307ZM499.384 42.2102L482.765 43.233C482.481 41.8125 481.87 40.5341 480.933 39.3977C479.995 38.233 478.759 37.3097 477.225 36.6278C475.719 35.9176 473.915 35.5625 471.813 35.5625C469.001 35.5625 466.629 36.1591 464.697 37.3523C462.765 38.517 461.799 40.0795 461.799 42.0398C461.799 43.6023 462.424 44.9233 463.674 46.0028C464.924 47.0824 467.069 47.9489 470.109 48.6023L481.955 50.9886C488.319 52.2955 493.063 54.3977 496.188 57.2955C499.313 60.1932 500.876 64 500.876 68.7159C500.876 73.0057 499.612 76.7699 497.083 80.0085C494.583 83.2472 491.146 85.7756 486.771 87.5938C482.424 89.3835 477.41 90.2784 471.728 90.2784C463.063 90.2784 456.16 88.4744 451.018 84.8665C445.904 81.2301 442.907 76.2869 442.026 70.0369L459.881 69.0994C460.421 71.7415 461.728 73.7585 463.802 75.1506C465.876 76.5142 468.532 77.196 471.771 77.196C474.952 77.196 477.509 76.5852 479.441 75.3636C481.401 74.1136 482.396 72.5085 482.424 70.5483C482.396 68.9006 481.7 67.5511 480.336 66.5C478.972 65.4205 476.87 64.5966 474.029 64.0284L462.694 61.7699C456.302 60.4915 451.543 58.2756 448.418 55.1222C445.322 51.9687 443.773 47.9489 443.773 43.0625C443.773 38.858 444.91 35.2358 447.183 32.196C449.484 29.1562 452.708 26.8125 456.856 25.1648C461.032 23.517 465.918 22.6932 471.515 22.6932C479.782 22.6932 486.288 24.4403 491.032 27.9347C495.805 31.429 498.589 36.1875 499.384 42.2102Z" fill="#A6A6A6"/>
</svg>
